<mxfile host="app.diagrams.net" agent="Mozilla/5.0 (Windows NT 10.0; Win64; x64) AppleWebKit/537.36 (KHTML, like Gecko) Chrome/132.0.0.0 Whale/4.30.291.11 Safari/537.36" version="26.1.0">
  <diagram name="페이지-1" id="MihOP8HVAaGrmpQ7puKx">
    <mxGraphModel dx="2026" dy="713" grid="1" gridSize="10" guides="1" tooltips="1" connect="1" arrows="1" fold="1" page="0" pageScale="1" pageWidth="827" pageHeight="1169" math="0" shadow="0">
      <root>
        <mxCell id="0" />
        <mxCell id="1" parent="0" />
        <mxCell id="cARZNgqgTZmyXKRvxcbQ-4" value="API1" style="rounded=0;orthogonalLoop=1;jettySize=auto;html=1;exitX=1;exitY=0.5;exitDx=0;exitDy=0;fillColor=#ffe6cc;strokeColor=#d79b00;" parent="1" source="cARZNgqgTZmyXKRvxcbQ-1" edge="1">
          <mxGeometry relative="1" as="geometry">
            <mxPoint x="600" y="570" as="targetPoint" />
          </mxGeometry>
        </mxCell>
        <mxCell id="cARZNgqgTZmyXKRvxcbQ-5" value="API2" style="rounded=0;orthogonalLoop=1;jettySize=auto;html=1;exitX=1;exitY=0.5;exitDx=0;exitDy=0;entryX=0;entryY=0.5;entryDx=0;entryDy=0;fillColor=#d5e8d4;strokeColor=#82b366;" parent="1" source="cARZNgqgTZmyXKRvxcbQ-1" target="ENg6kExv28QaTYg1Y7jo-16" edge="1">
          <mxGeometry relative="1" as="geometry">
            <mxPoint x="600" y="730" as="targetPoint" />
          </mxGeometry>
        </mxCell>
        <mxCell id="cARZNgqgTZmyXKRvxcbQ-1" value="ADMIN" style="rounded=0;whiteSpace=wrap;html=1;" parent="1" vertex="1">
          <mxGeometry x="340" y="690" width="120" height="60" as="geometry" />
        </mxCell>
        <mxCell id="ENg6kExv28QaTYg1Y7jo-15" value="CMP" style="swimlane;horizontal=0;whiteSpace=wrap;html=1;fillColor=#ffe6cc;strokeColor=#d79b00;" vertex="1" parent="1">
          <mxGeometry x="600" y="520" width="340" height="100" as="geometry" />
        </mxCell>
        <mxCell id="ENg6kExv28QaTYg1Y7jo-17" value="" style="edgeStyle=orthogonalEdgeStyle;rounded=0;orthogonalLoop=1;jettySize=auto;html=1;fillColor=#ffe6cc;strokeColor=#d79b00;" edge="1" parent="ENg6kExv28QaTYg1Y7jo-15" source="ENg6kExv28QaTYg1Y7jo-6" target="ENg6kExv28QaTYg1Y7jo-7">
          <mxGeometry relative="1" as="geometry" />
        </mxCell>
        <mxCell id="ENg6kExv28QaTYg1Y7jo-6" value="Controller" style="rounded=0;whiteSpace=wrap;html=1;fillColor=#ffe6cc;strokeColor=#d79b00;" vertex="1" parent="ENg6kExv28QaTYg1Y7jo-15">
          <mxGeometry x="40" y="20" width="120" height="60" as="geometry" />
        </mxCell>
        <mxCell id="ENg6kExv28QaTYg1Y7jo-7" value="Service" style="rounded=0;whiteSpace=wrap;html=1;fillColor=#ffe6cc;strokeColor=#d79b00;" vertex="1" parent="ENg6kExv28QaTYg1Y7jo-15">
          <mxGeometry x="200" y="20" width="120" height="60" as="geometry" />
        </mxCell>
        <mxCell id="ENg6kExv28QaTYg1Y7jo-16" value="MEMBER" style="swimlane;horizontal=0;whiteSpace=wrap;html=1;fillColor=#d5e8d4;strokeColor=#82b366;" vertex="1" parent="1">
          <mxGeometry x="600" y="670" width="340" height="100" as="geometry" />
        </mxCell>
        <mxCell id="ENg6kExv28QaTYg1Y7jo-18" value="" style="edgeStyle=orthogonalEdgeStyle;rounded=0;orthogonalLoop=1;jettySize=auto;html=1;fillColor=#d5e8d4;strokeColor=#82b366;" edge="1" parent="ENg6kExv28QaTYg1Y7jo-16" source="ENg6kExv28QaTYg1Y7jo-8" target="ENg6kExv28QaTYg1Y7jo-9">
          <mxGeometry relative="1" as="geometry" />
        </mxCell>
        <mxCell id="ENg6kExv28QaTYg1Y7jo-8" value="Controller" style="rounded=0;whiteSpace=wrap;html=1;fillColor=#d5e8d4;strokeColor=#82b366;" vertex="1" parent="ENg6kExv28QaTYg1Y7jo-16">
          <mxGeometry x="40" y="20" width="120" height="60" as="geometry" />
        </mxCell>
        <mxCell id="ENg6kExv28QaTYg1Y7jo-9" value="Service" style="rounded=0;whiteSpace=wrap;html=1;fillColor=#d5e8d4;strokeColor=#82b366;" vertex="1" parent="ENg6kExv28QaTYg1Y7jo-16">
          <mxGeometry x="200" y="20" width="120" height="60" as="geometry" />
        </mxCell>
        <mxCell id="ENg6kExv28QaTYg1Y7jo-20" value="BASIC" style="swimlane;horizontal=0;whiteSpace=wrap;html=1;fillColor=#dae8fc;strokeColor=#6c8ebf;" vertex="1" parent="1">
          <mxGeometry x="600" y="820" width="340" height="100" as="geometry" />
        </mxCell>
        <mxCell id="ENg6kExv28QaTYg1Y7jo-21" value="" style="edgeStyle=orthogonalEdgeStyle;rounded=0;orthogonalLoop=1;jettySize=auto;html=1;fillColor=#dae8fc;strokeColor=#6c8ebf;" edge="1" parent="ENg6kExv28QaTYg1Y7jo-20" source="ENg6kExv28QaTYg1Y7jo-22" target="ENg6kExv28QaTYg1Y7jo-23">
          <mxGeometry relative="1" as="geometry" />
        </mxCell>
        <mxCell id="ENg6kExv28QaTYg1Y7jo-22" value="Controller" style="rounded=0;whiteSpace=wrap;html=1;fillColor=#dae8fc;strokeColor=#6c8ebf;" vertex="1" parent="ENg6kExv28QaTYg1Y7jo-20">
          <mxGeometry x="40" y="20" width="120" height="60" as="geometry" />
        </mxCell>
        <mxCell id="ENg6kExv28QaTYg1Y7jo-23" value="Service" style="rounded=0;whiteSpace=wrap;html=1;fillColor=#dae8fc;strokeColor=#6c8ebf;" vertex="1" parent="ENg6kExv28QaTYg1Y7jo-20">
          <mxGeometry x="200" y="20" width="120" height="60" as="geometry" />
        </mxCell>
        <mxCell id="ENg6kExv28QaTYg1Y7jo-25" value="API3" style="rounded=0;orthogonalLoop=1;jettySize=auto;html=1;entryX=0;entryY=0.6;entryDx=0;entryDy=0;entryPerimeter=0;exitX=1;exitY=0.5;exitDx=0;exitDy=0;fillColor=#dae8fc;strokeColor=#6c8ebf;" edge="1" parent="1" source="cARZNgqgTZmyXKRvxcbQ-1" target="ENg6kExv28QaTYg1Y7jo-20">
          <mxGeometry relative="1" as="geometry" />
        </mxCell>
      </root>
    </mxGraphModel>
  </diagram>
</mxfile>
